<!DOCTYPE svg PUBLIC "-//W3C//DTD SVG 20010904//EN" "http://www.w3.org/TR/2001/REC-SVG-20010904/DTD/svg10.dtd">
<svg version="1.0" xmlns="http://www.w3.org/2000/svg" width="1584px" height="1600px" viewBox="0 0 15840 16000" preserveAspectRatio="xMidYMid meet">
<g id="layer101" fill="#000000" stroke="none">
 <path d="M1127 15958 c-19 -24 -57 -66 -83 -93 -27 -28 -83 -89 -124 -135 -96 -109 -116 -132 -165 -183 -22 -23 -76 -82 -120 -132 -44 -49 -90 -99 -102 -111 -13 -12 -23 -24 -23 -27 0 -2 -19 -24 -42 -49 -24 -24 -74 -79 -113 -122 -38 -44 -80 -89 -91 -100 -12 -12 -59 -64 -106 -116 -46 -52 -100 -113 -121 -135 -33 -35 -49 -75 -29 -75 4 0 30 -21 57 -47 28 -27 79 -73 115 -103 35 -30 74 -64 85 -75 17 -18 51 -47 174 -150 13 -11 35 -31 50 -45 14 -14 58 -52 96 -85 39 -33 75 -64 81 -70 30 -27 86 -76 149 -130 39 -33 77 -67 85 -75 8 -8 47 -42 85 -75 39 -32 77 -66 86 -75 9 -8 41 -35 70 -60 30 -25 67 -57 82 -72 16 -16 31 -28 34 -28 3 0 15 -10 27 -23 11 -13 50 -48 86 -78 35 -29 74 -64 86 -76 12 -13 24 -23 27 -23 3 0 18 -12 34 -27 15 -16 52 -48 82 -73 29 -25 65 -56 80 -70 14 -14 58 -52 96 -85 63 -54 119 -103 149 -130 6 -6 42 -37 81 -70 38 -33 79 -69 91 -80 12 -11 43 -39 70 -62 50 -42 103 -89 139 -121 11 -10 54 -47 95 -83 41 -35 80 -69 85 -75 6 -6 42 -37 80 -69 39 -32 77 -67 86 -77 9 -10 19 -18 22 -18 3 0 18 -12 34 -27 15 -16 52 -48 82 -73 29 -25 65 -56 80 -70 23 -22 160 -140 170 -146 5 -4 -29 -36 -129 -119 -52 -44 -97 -82 -100 -85 -3 -3 -27 -23 -53 -44 -27 -21 -56 -46 -65 -55 -10 -9 -33 -28 -52 -43 -19 -14 -46 -36 -61 -49 -14 -13 -50 -43 -80 -66 -29 -23 -63 -50 -74 -60 -11 -10 -81 -68 -155 -128 -74 -60 -137 -112 -140 -115 -3 -3 -43 -37 -90 -75 -47 -38 -87 -71 -90 -75 -3 -3 -36 -32 -75 -65 -38 -33 -75 -64 -81 -70 -6 -5 -42 -37 -80 -70 -38 -33 -93 -83 -123 -112 -29 -29 -54 -53 -56 -53 -11 0 -295 -295 -355 -370 -25 -30 -48 -56 -52 -58 -5 -2 -8 -10 -8 -17 0 -7 -3 -15 -8 -17 -21 -9 -126 -169 -180 -273 -57 -111 -107 -252 -133 -375 -18 -86 -19 -393 -1 -475 16 -72 63 -226 73 -240 4 -6 16 -33 27 -61 33 -82 194 -344 231 -374 4 -3 22 -25 41 -50 53 -68 98 -115 323 -338 261 -259 290 -287 407 -392 88 -79 109 -98 179 -163 14 -13 60 -53 101 -88 41 -35 84 -73 95 -84 11 -12 49 -46 85 -75 36 -30 67 -57 70 -60 3 -3 50 -43 105 -90 55 -47 107 -91 115 -100 8 -8 47 -42 85 -75 39 -33 72 -62 75 -65 3 -3 39 -34 80 -69 78 -67 218 -191 281 -251 l37 -35 -91 -116 c-51 -64 -103 -131 -117 -149 -14 -18 -54 -70 -90 -115 -36 -45 -76 -97 -90 -115 -14 -18 -36 -47 -50 -65 -14 -18 -36 -47 -50 -65 -14 -18 -63 -81 -108 -139 -46 -58 -100 -128 -119 -154 l-36 -49 60 -56 c33 -32 109 -102 169 -157 59 -55 127 -118 150 -140 92 -88 169 -159 281 -262 65 -59 139 -129 165 -155 26 -27 50 -48 52 -48 2 0 29 -25 59 -55 30 -30 59 -55 63 -55 5 0 1783 1774 3952 3943 l3942 3942 -42 40 c-37 34 -160 142 -221 194 -10 9 -33 30 -51 46 -18 17 -63 57 -101 90 -37 33 -79 71 -94 85 -14 14 -58 52 -96 85 -82 70 -125 109 -169 150 -17 17 -55 50 -84 75 -30 25 -74 64 -100 88 -26 23 -50 42 -55 42 -8 0 -180 -123 -212 -153 -11 -10 -35 -27 -53 -38 -17 -12 -32 -25 -32 -30 0 -5 -6 -9 -14 -9 -8 0 -16 -4 -18 -8 -1 -4 -41 -36 -88 -70 -47 -35 -92 -68 -100 -75 -8 -7 -60 -46 -115 -87 -55 -41 -145 -117 -200 -169 -55 -53 -119 -113 -143 -135 l-42 -40 -33 39 c-43 52 -164 203 -202 251 -16 21 -38 46 -47 56 -10 10 -18 23 -18 28 0 6 -3 10 -7 10 -5 0 -23 23 -42 50 -19 28 -37 50 -40 50 -4 0 -14 12 -23 28 -9 15 -27 39 -40 53 -13 14 -43 52 -68 85 -25 32 -49 64 -55 70 -5 6 -23 29 -40 50 -16 21 -38 46 -47 56 -10 10 -18 22 -18 27 0 5 -3 11 -8 13 -4 2 -23 23 -42 48 -40 51 -57 72 -84 103 -10 12 -30 38 -45 57 -14 19 -31 40 -37 45 -6 6 -28 33 -50 60 -21 28 -45 57 -54 66 -8 9 -24 27 -35 40 -52 63 -129 155 -135 159 -3 3 -39 43 -80 90 -114 131 -299 321 -457 470 -84 80 -250 211 -310 245 -15 9 -48 29 -73 45 -118 76 -280 148 -395 176 -33 8 -80 19 -105 26 -25 6 -104 13 -175 16 -129 4 -179 -2 -368 -47 -85 -20 -273 -105 -387 -174 -71 -43 -229 -153 -245 -171 -5 -6 -37 -31 -70 -56 -50 -37 -486 -466 -576 -566 -14 -16 -50 -56 -79 -89 -29 -33 -67 -76 -84 -95 -36 -41 -163 -187 -185 -214 -9 -10 -23 -26 -31 -35 -9 -9 -40 -45 -70 -81 -30 -36 -57 -67 -60 -70 -3 -3 -28 -32 -55 -65 -28 -33 -58 -67 -67 -76 -10 -9 -18 -21 -18 -28 0 -6 -4 -11 -9 -11 -5 0 -35 -33 -67 -72 -32 -40 -70 -85 -84 -99 -14 -14 -45 -50 -70 -79 -78 -92 -94 -110 -102 -110 -4 0 -24 18 -45 39 -39 40 -53 56 -183 201 -41 46 -84 93 -95 104 -12 12 -61 66 -109 121 -49 55 -98 109 -110 121 -11 11 -52 56 -91 100 -38 43 -89 98 -112 122 -24 25 -43 47 -43 49 0 3 -10 15 -22 27 -13 12 -61 64 -108 116 -46 52 -102 113 -123 135 -58 61 -77 82 -172 190 -49 55 -96 107 -105 115 -9 8 -54 58 -100 110 -46 52 -103 115 -127 140 -23 25 -50 54 -60 66 -23 27 -160 178 -193 214 -14 14 -61 67 -105 116 -43 49 -100 111 -125 137 -85 92 -95 102 -175 192 -44 50 -91 102 -105 116 -14 14 -59 63 -100 110 -78 86 -110 122 -181 199 -23 25 -64 71 -92 103 -27 31 -58 57 -67 57 -10 0 -33 -19 -53 -42z"/>
 <path d="M8525 7453 c-2170 -2171 -3945 -3952 -3945 -3957 0 -4 95 -101 211 -215 116 -113 284 -278 373 -366 89 -88 203 -200 253 -249 l92 -88 35 21 c19 12 36 25 38 29 2 4 28 28 58 52 30 25 57 47 60 50 3 3 37 32 75 64 39 32 72 63 73 67 2 5 10 9 17 9 7 0 15 3 17 8 2 4 32 32 68 62 36 30 72 61 81 70 9 8 33 29 54 45 54 42 119 96 125 104 3 3 43 38 90 76 47 38 96 80 110 92 l25 23 53 -56 c28 -32 52 -59 52 -62 0 -3 10 -14 23 -26 13 -11 47 -50 77 -86 30 -36 61 -72 70 -81 8 -9 31 -35 50 -59 42 -51 63 -75 98 -115 15 -17 45 -52 67 -79 21 -27 48 -60 60 -72 22 -25 34 -38 114 -134 31 -36 58 -67 61 -70 3 -3 30 -34 59 -70 29 -36 58 -69 65 -75 6 -5 36 -39 66 -75 88 -104 93 -110 125 -144 17 -18 59 -66 95 -107 77 -87 78 -88 250 -271 227 -241 379 -389 515 -502 39 -32 80 -67 93 -77 12 -10 27 -19 32 -19 6 0 10 -4 10 -8 0 -4 15 -16 33 -27 17 -10 34 -21 37 -24 14 -16 154 -103 220 -136 41 -21 84 -42 94 -47 11 -6 49 -21 85 -35 146 -54 282 -78 436 -78 110 1 144 5 275 37 61 14 189 57 220 74 14 7 58 29 99 49 40 20 100 53 133 73 53 33 306 216 318 231 3 3 37 33 75 66 85 73 448 435 565 565 47 51 99 108 115 125 49 53 96 105 169 190 38 44 76 87 85 95 10 8 55 60 101 115 47 55 94 109 106 120 11 11 52 56 89 100 38 44 76 87 84 95 18 17 91 97 140 155 l34 39 84 -90 c94 -100 131 -140 288 -309 61 -65 126 -135 145 -155 19 -20 84 -90 145 -156 60 -65 140 -150 177 -189 37 -38 79 -83 94 -100 80 -89 215 -235 259 -280 28 -29 73 -76 100 -106 56 -61 264 -284 310 -333 17 -18 73 -79 125 -135 52 -57 118 -127 145 -156 54 -56 105 -111 260 -279 55 -60 116 -125 135 -145 19 -20 62 -66 95 -102 33 -35 118 -126 189 -202 71 -75 142 -153 159 -172 37 -43 57 -44 87 -3 13 18 32 42 42 53 49 54 65 74 93 110 17 21 37 45 46 54 8 9 33 39 54 66 22 28 46 57 55 66 17 19 37 43 99 119 24 30 47 57 50 60 4 3 38 43 76 90 38 47 71 87 75 90 3 3 25 30 50 60 25 30 47 57 51 60 3 3 26 30 50 60 62 76 82 100 99 119 9 9 33 39 55 66 21 28 46 57 54 66 9 9 30 33 46 55 17 21 38 46 48 56 17 18 24 58 10 58 -5 0 -26 17 -49 38 -22 20 -66 60 -98 87 -32 28 -70 62 -85 76 -14 14 -55 50 -91 79 -36 30 -75 64 -86 77 -12 13 -24 23 -27 23 -3 0 -18 12 -34 27 -15 16 -59 55 -97 88 -38 33 -76 67 -85 75 -9 9 -45 40 -81 70 -36 30 -77 66 -91 80 -15 14 -51 45 -80 70 -67 57 -96 83 -134 118 -16 16 -59 52 -95 82 -36 30 -75 64 -86 77 -12 13 -24 23 -27 23 -3 0 -18 12 -34 27 -15 16 -59 55 -97 88 -38 33 -76 67 -85 75 -9 9 -45 40 -81 70 -36 30 -77 66 -91 80 -15 14 -51 45 -80 70 -29 25 -63 54 -75 65 -49 44 -92 83 -159 140 -39 33 -77 67 -85 75 -8 8 -61 54 -116 102 -56 48 -108 94 -117 102 -12 12 -131 117 -200 175 -10 9 -29 25 -41 36 -12 11 -53 47 -91 80 -37 33 -78 69 -89 80 -12 11 -53 47 -91 80 -39 33 -83 72 -100 87 -16 14 -43 38 -60 52 -34 30 -43 18 95 130 47 39 87 72 90 76 3 3 30 25 60 50 30 25 57 47 60 50 3 3 30 25 60 50 30 24 64 52 75 62 11 9 40 33 65 53 25 20 54 44 65 54 11 9 58 48 105 86 165 134 185 150 205 168 11 11 46 39 78 64 31 25 57 50 57 54 0 5 5 9 11 9 7 0 19 8 28 18 9 10 43 40 76 67 33 28 72 61 86 75 15 14 65 59 111 100 205 185 402 393 530 560 32 41 62 80 68 87 5 7 10 17 10 23 0 5 3 10 8 10 4 0 12 9 17 19 6 11 36 65 68 122 31 56 57 106 57 111 0 4 4 16 9 26 21 41 40 90 51 132 7 25 17 59 22 75 48 154 50 462 2 600 -8 23 -14 47 -14 54 0 22 -77 206 -124 295 -45 86 -152 248 -168 254 -4 2 -8 10 -8 17 0 7 -3 15 -8 17 -4 2 -23 23 -42 48 -135 175 -656 693 -1055 1051 -33 29 -76 69 -96 89 -41 39 -163 149 -224 201 -21 19 -53 48 -70 64 -16 17 -68 64 -115 105 -47 41 -101 90 -122 110 -20 19 -54 51 -76 70 -78 70 -206 186 -263 240 l-59 56 25 26 c14 15 25 31 25 37 0 5 3 11 8 13 4 2 23 23 42 48 19 25 37 47 40 50 3 3 21 25 40 50 19 25 39 50 45 56 5 6 21 26 35 44 29 39 72 93 80 100 3 3 21 25 40 50 19 25 38 47 42 48 5 2 8 8 8 13 0 5 8 17 18 27 29 31 62 72 62 77 0 3 9 16 21 28 11 12 39 47 62 77 23 30 47 60 53 65 6 6 24 28 40 49 16 22 39 51 52 64 12 14 22 31 22 39 0 8 -174 191 -387 406 -214 215 -415 420 -449 454 -34 35 -64 63 -68 63 -3 0 -1781 -1776 -3951 -3947z"/>
 </g>

</svg>