<!DOCTYPE svg PUBLIC "-//W3C//DTD SVG 20010904//EN" "http://www.w3.org/TR/2001/REC-SVG-20010904/DTD/svg10.dtd">
<svg version="1.0" xmlns="http://www.w3.org/2000/svg" width="1594px" height="1600px" viewBox="0 0 15940 16000" preserveAspectRatio="xMidYMid meet">
<g id="layer101" fill="#000000" stroke="none">
 <path d="M642 15437 l-562 -562 990 -990 c545 -544 990 -993 990 -997 0 -10 -1408 -1419 -1517 -1518 -230 -207 -401 -469 -479 -729 -57 -189 -58 -200 -58 -466 0 -265 4 -296 57 -475 23 -76 93 -233 117 -264 6 -6 41 -58 80 -116 84 -125 100 -147 233 -309 258 -314 398 -462 827 -874 l184 -177 -249 -252 c-138 -138 -294 -295 -348 -350 l-99 -98 7 -68 c12 -135 13 -136 77 -203 183 -191 603 -611 669 -668 115 -101 129 -110 204 -147 60 -30 79 -34 145 -34 110 0 203 46 350 174 76 66 204 194 3876 3868 3372 3373 3573 3577 3601 3638 17 36 36 94 43 130 11 59 11 72 -9 143 -33 122 -57 160 -199 319 -85 96 -785 790 -802 796 -4 2 -173 -160 -375 -360 -201 -200 -369 -364 -373 -365 -4 -1 -39 23 -79 55 -39 31 -95 75 -123 97 -29 22 -112 87 -185 145 -73 58 -157 123 -185 145 -68 52 -171 133 -190 148 -8 7 -33 26 -55 42 -47 35 -53 40 -125 98 -236 187 -545 415 -655 480 -272 163 -491 230 -755 230 -214 1 -338 -28 -545 -129 -143 -70 -181 -94 -330 -207 -109 -82 -321 -287 -914 -881 -371 -372 -677 -676 -680 -676 -3 0 -449 443 -991 985 -542 542 -989 985 -995 985 -6 0 -263 -253 -573 -563z"/>
 <path d="M9547 9642 c-306 -306 -557 -562 -557 -567 0 -5 444 -454 987 -997 l988 -988 -1025 -1025 -1025 -1025 -992 992 -993 993 -560 -560 c-308 -308 -560 -564 -560 -570 0 -6 461 -471 1025 -1035 l1025 -1025 -952 -952 -952 -952 24 -28 c14 -15 187 -191 385 -389 449 -451 541 -521 691 -532 146 -10 340 124 689 477 49 50 94 91 100 91 6 0 26 -13 45 -29 19 -17 82 -69 140 -116 58 -47 114 -93 126 -103 61 -51 239 -197 464 -381 19 -16 60 -49 90 -74 212 -175 323 -266 356 -292 21 -16 56 -46 78 -66 59 -51 226 -183 261 -205 16 -10 38 -25 47 -33 15 -13 105 -65 168 -97 127 -64 305 -124 430 -144 95 -15 352 -12 446 4 107 19 261 70 357 117 78 40 208 116 217 128 3 4 21 18 40 31 99 68 304 267 1275 1240 247 247 452 450 455 450 3 0 448 -443 990 -985 542 -542 989 -985 994 -985 15 0 1066 1056 1066 1071 0 8 -444 458 -987 1001 l-986 986 773 774 c425 425 800 805 832 843 33 39 69 81 80 95 12 14 50 68 85 120 35 52 68 100 73 106 20 26 94 184 122 263 47 133 58 201 58 373 0 294 -57 469 -295 908 -35 65 -136 231 -199 326 -11 16 -42 65 -70 109 -140 221 -294 387 -702 755 -27 25 -104 96 -171 158 -117 108 -122 114 -116 145 11 60 28 86 122 184 301 313 382 415 422 530 38 112 16 214 -77 343 -54 75 -226 258 -519 550 l-305 305 -917 -918 -916 -919 -1041 1041 c-573 573 -1043 1041 -1046 1041 -3 0 -256 -251 -563 -558z"/>
 </g>

</svg>