<?xml version="1.0" encoding="utf-8"?>
<!-- Generator: Adobe Illustrator 18.1.1, SVG Export Plug-In . SVG Version: 6.00 Build 0)  -->
<svg version="1.1" id="svg" xmlns="http://www.w3.org/2000/svg" xmlns:xlink="http://www.w3.org/1999/xlink" x="0px" y="0px"
	 viewBox="0 0 512 512" enable-background="new 0 0 512 512" xml:space="preserve">
<g id="svgg">
	<path id="path0" d="M250.8,57.9l-2.2,1.9v18.5v18.5l2.2,1.9c3,2.6,7.5,2.6,10.5,0l2.2-1.9V78.3V59.8l-2.2-1.9
		C258.2,55.3,253.7,55.3,250.8,57.9 M127.9,108.1c-8.8,3.2-7.1,9,6.9,23.1c13.8,13.9,17.2,15.5,21.8,10.5c4.7-5.1,3.3-8.1-10.1-21.4
		C134.4,108.4,131.8,106.7,127.9,108.1 M378.6,108.4c-3.1,1.3-24.1,22.6-25.1,25.5c-2.1,6.5,4.7,12.5,10.7,9.3
		c3.3-1.8,23.5-22.4,24.5-25.1C391.1,112,384.8,105.9,378.6,108.4 M249.7,115.1c-82.1,4.1-138.3,84.5-114.4,163.4
		c10.6,34.9,38.8,66,71.6,79l4.5,1.8v35v35l1.9,2.2c1.6,1.9,2.5,2.2,7.4,2.5l5.6,0.3v8.8c0,8.5,0.1,8.9,2.1,10.8l2.1,2.1H256h25.6
		l2.1-2.1c2-2,2.1-2.4,2.1-10.8v-8.8l5.6-0.3c4.9-0.3,5.8-0.6,7.4-2.5l1.9-2.2v-35v-35l4.5-1.8c32.8-13,61-44.1,71.6-79
		C402.1,194.7,336.9,110.7,249.7,115.1 M75,234.1c-4.5,1.8-5.7,9.2-2.2,12.6c2,1.9,2,1.9,20.4,1.9h18.4l1.9-2.2
		c3.3-3.9,2.3-9.6-2-11.9C108.9,233.2,78.2,232.9,75,234.1 M400.3,234.6c-4.2,2.3-5.1,8.1-1.8,11.8l1.9,2.2h18.4
		c18.4,0,18.4,0,20.4-1.9c2.8-2.6,2.8-7.6,0.1-10.8l-1.9-2.2l-17.5-0.2C405.6,233.4,402.1,233.6,400.3,234.6 M148.2,338.9
		c-3.1,1.3-24.1,22.6-25.1,25.5c-2.1,6.5,4.7,12.5,10.7,9.3c3.3-1.8,23.5-22.4,24.5-25.1C160.6,342.5,154.3,336.4,148.2,338.9
		 M358.3,338.6c-8.8,3.2-7.1,9,6.9,23.1c13.8,13.9,17.2,15.5,21.8,10.5c4.7-5.1,3.3-8.1-10.1-21.4
		C364.9,338.8,362.3,337.1,358.3,338.6"/>
</g>
</svg>
