<svg id="svg" version="1.1" width="512" height="512" xmlns="http://www.w3.org/2000/svg" xmlns:xlink="http://www.w3.org/1999/xlink" ><g id="svgg"><path id="path0" d="M194.770 1.885 L 192.578 3.771 192.578 22.266 L 192.578 40.760 194.770 42.646 C 197.743 45.203,202.257 45.203,205.230 42.646 L 207.422 40.760 207.422 22.266 L 207.422 3.771 205.230 1.885 C 202.257 -0.672,197.743 -0.672,194.770 1.885 M71.875 52.114 C 63.052 55.340,64.782 61.161,78.750 75.249 C 92.537 89.155,95.937 90.789,100.567 85.730 C 105.261 80.600,103.880 77.678,90.430 64.287 C 78.453 52.362,75.857 50.659,71.875 52.114 M322.656 52.397 C 319.512 53.677,298.554 75.014,297.599 77.908 C 295.458 84.395,302.339 90.389,308.304 87.232 C 311.626 85.473,331.817 64.821,332.806 62.169 C 335.120 55.967,328.810 49.893,322.656 52.397 M193.750 59.111 C 111.667 63.249,55.408 143.622,79.363 222.524 C 89.945 257.381,118.138 288.481,150.977 301.522 L 155.469 303.306 155.469 338.328 L 155.469 373.350 157.328 375.512 C 158.968 377.419,159.839 377.710,164.750 377.987 L 170.313 378.301 170.313 387.091 C 170.313 395.546,170.391 395.959,172.372 397.940 L 174.432 400.000 200.000 400.000 L 225.568 400.000 227.628 397.940 C 229.609 395.959,229.687 395.546,229.688 387.091 L 229.688 378.301 235.250 377.987 C 240.161 377.710,241.032 377.419,242.672 375.512 L 244.531 373.350 244.531 338.328 L 244.531 303.306 249.023 301.522 C 281.862 288.481,310.055 257.381,320.637 222.524 C 346.086 138.700,280.876 54.718,193.750 59.111 M19.029 178.118 C 14.562 179.921,13.284 187.325,16.860 190.684 C 18.875 192.578,18.880 192.578,37.240 192.578 L 55.604 192.578 57.490 190.386 C 60.807 186.529,59.834 180.773,55.484 178.524 C 52.910 177.193,22.170 176.851,19.029 178.118 M344.356 178.539 C 340.149 180.867,339.255 186.602,342.510 190.386 L 344.396 192.578 362.760 192.578 C 381.120 192.578,381.125 192.578,383.140 190.684 C 385.894 188.097,385.956 183.048,383.272 179.926 L 381.388 177.734 363.936 177.548 C 349.592 177.395,346.105 177.571,344.356 178.539 M92.188 282.866 C 89.043 284.146,68.085 305.483,67.130 308.377 C 64.989 314.864,71.871 320.858,77.835 317.701 C 81.158 315.942,101.348 295.290,102.337 292.638 C 104.651 286.436,98.341 280.362,92.188 282.866 M302.344 282.583 C 293.521 285.808,295.250 291.630,309.218 305.718 C 323.006 319.624,326.406 321.258,331.035 316.199 C 335.730 311.069,334.349 308.146,320.899 294.756 C 308.922 282.831,306.326 281.127,302.344 282.583 " stroke="none" fill="#000000" fill-rule="evenodd"></path></g></svg>