<?xml version="1.0" encoding="utf-8"?>
<!-- Generator: Adobe Illustrator 18.1.1, SVG Export Plug-In . SVG Version: 6.00 Build 0)  -->
<svg version="1.1" id="svg" xmlns="http://www.w3.org/2000/svg" xmlns:xlink="http://www.w3.org/1999/xlink" x="0px" y="0px"
	 viewBox="0 0 512 512" enable-background="new 0 0 512 512" xml:space="preserve">
<g id="svgg">
	<path id="path0" d="M249.7,85.6c-82.1,4.1-138.3,84.5-114.4,163.4c10.6,34.9,38.8,66,71.6,79l4.5,1.8v35v35l1.9,2.2
		c1.6,1.9,2.5,2.2,7.4,2.5l5.6,0.3v8.8c0,8.5,0.1,8.9,2.1,10.8l2.1,2.1H256h25.6l2.1-2.1c2-2,2.1-2.4,2.1-10.8v-8.8l5.6-0.3
		c4.9-0.3,5.8-0.6,7.4-2.5l1.9-2.2v-35v-35l4.5-1.8c32.8-13,61-44.1,71.6-79C402.1,165.2,336.9,81.2,249.7,85.6 M264.6,101.6
		c117.3,10.4,139.9,170.4,30.2,213.6c-8.5,3.3-9.4,4.6-9.7,14.5l-0.3,7.8H256h-28.8l-0.3-7.8c-0.3-9.9-1.2-11.2-9.7-14.5
		c-102.1-40.2-92.2-186.4,14.4-211.2c6.1-1.4,10.6-2,22.8-3.1C255.1,100.8,259.6,101.1,264.6,101.6 M240.5,123.8
		c-40.7,7.4-71.2,41.5-73.4,82c-0.6,10.3,0.6,12.6,6.5,13.4c5.9,0.8,8-2.1,9-12.5c3.5-37.4,30.9-64.9,68.3-68.4
		c9.4-0.9,11.7-2.1,12.6-6.8C265,123.5,257.1,120.8,240.5,123.8 M284.9,371v17.9l-5,0.3c-8.1,0.5-9.8,3.3-9.8,15.7l0,6.8H256h-14.1
		l0-6.8c0-12.4-1.7-15.2-9.8-15.7l-5-0.3V371v-17.9H256h28.9V371"/>
</g>
</svg>
