<?xml version="1.0" encoding="utf-8"?>
<!-- Generator: Adobe Illustrator 18.1.1, SVG Export Plug-In . SVG Version: 6.00 Build 0)  -->
<svg version="1.1" id="svg" xmlns="http://www.w3.org/2000/svg" xmlns:xlink="http://www.w3.org/1999/xlink" x="0px" y="0px"
	 viewBox="0 0 512 512" enable-background="new 0 0 512 512" xml:space="preserve">
<g id="svgg">
	<path id="path0" d="M216.1,57.5c-14.5,3.9-26.8,16.5-30.6,31.2c-1.5,5.9-1.6,8.9-1.6,106.3v100.2l-5.7,3.8
		c-68,45.9-36,154,46.3,156.9c85.4,3,123.3-106.2,54.2-156.1l-6.5-4.7L272,193.5c-0.2-96.3-0.3-101.9-1.7-106
		C262.6,64.3,239.1,51.3,216.1,57.5 M235.4,75c6.8,1.7,13,7.3,16.5,14.8l2,4.3l0.2,106l0.2,106l6.4,3.7
		c64.8,37.6,34,136.7-39.9,128.4c-66.9-7.5-84.3-95.4-25.5-128.4l6.6-3.7l0.2-106.4l0.2-106.4l2-4.3C210,77.2,222.3,71.7,235.4,75
		 M303.5,115.6v8.6h33.6h33.6v-8.6V107h-33.6h-33.6V115.6 M303.5,152.7v9H323h19.5v-9v-9H323h-19.5V152.7 M303.5,190.2v9h33.6h33.6
		v-9v-9h-33.6h-33.6V190.2 M216.8,262.8v52.7l-6.2,2c-59.2,19.7-45,107.5,17.5,107.5c62.5,0,76.2-88.3,16.6-107.8l-5.3-1.7v-52.7
		v-52.7h-11.3h-11.3V262.8 M303.5,226.9v9H323h19.5v-9v-9H323h-19.5V226.9 M303.5,264.4v9h33.6h33.6v-9v-9h-33.6h-33.6V264.4
		 M226,327.2c8.2,5.8,5.3,14.9-6.1,19.5c-9.6,3.9-15,10.8-16.1,20.8c-0.9,8.2-4.5,12.1-11,12.1c-11.1,0-13.4-14.5-5.1-30.9
		C195.9,332.9,217.1,320.9,226,327.2"/>
</g>
</svg>
